#!OML:ASF F:\VICON\USERDATA\INSTALL\rory3\rory3.ASF
:FULLY-SPECIFIED
:DEGREES
324
root -1.90628 18.9411 10.0717 179.542 26.1526 173.681
lowerback 12.0501 2.56917 0.771431
upperback 2.53011 3.6365 -1.891
thorax -3.92061 1.87936 -2.96318
lowerneck -6.47487 0.23376 -5.94158
upperneck 28.7898 3.10163 2.38627
head 10.1071 1.89691 2.34164
rclavicle 1.05753e-013 -7.95139e-016
rhumerus -30.9163 1.47506 -79.2243
rradius 32.1773
rwrist 11.1358
rhand -26.1453 1.57876
rfingers 7.12502
rthumb 0.405456 -28.4006
lclavicle 1.05753e-013 -7.95139e-016
lhumerus -33.061 21.1539 73.4471
lradius 21.4944
lwrist -10.4007
lhand -26.4409 21.9427
lfingers 7.12502
lthumb 0.119869 51.9224
rfemur -8.73449 15.3133 19.3519
rtibia 21.122
rfoot -21.4768 -24.5625
rtoes 14.4607
lfemur -57.9803 13.2174 -24.3186
ltibia 73.9081
lfoot -17.7124 3.81207
ltoes -9.49106
325
root -1.90046 18.9444 10.0511 179.689 25.9367 173.729
lowerback 12.034 2.57814 0.814716
upperback 2.52921 3.65417 -1.8622
thorax -3.91104 1.88747 -2.95898
lowerneck -6.58952 0.187804 -5.98822
upperneck 28.8162 3.05195 2.38068
head 10.1413 1.86675 2.34587
rclavicle -1.5207e-014 7.55382e-015
rhumerus -30.8449 1.86164 -79.3979
rradius 32.2312
rwrist 10.2791
rhand -24.9677 -0.691057
rfingers 7.12502
rthumb 1.54279 -30.6652
lclavicle -1.5207e-014 7.55382e-015
lhumerus -32.921 21.2352 73.53
lradius 21.3241
lwrist -10.7687
lhand -26.5029 21.6618
lfingers 7.12502
lthumb 0.0599928 51.6415
rfemur -8.68102 15.3878 19.3797
rtibia 20.9841
rfoot -21.5688 -24.8252
rtoes 14.3713
lfemur -58.0796 12.8999 -24.2746
ltibia 73.8957
lfoot -17.4122 3.95924
ltoes -9.33933
326
root -1.89563 18.9496 10.0257 179.765 25.647 173.697
lowerback 11.9618 2.53992 0.836115
upperback 2.5697 3.60906 -1.86979
thorax -3.82969 1.86769 -2.96634
lowerneck -6.59088 0.17028 -5.98692
upperneck 28.7381 3.02903 2.32913
head 10.1152 1.84884 2.32232
rclavicle 8.84592e-015 -7.95139e-016
rhumerus -30.7821 2.04958 -79.4928
rradius 32.3155
rwrist 9.99597
rhand -24.6099 -1.93568
rfingers 7.12502
rthumb 1.88828 -31.9071
lclavicle 8.84592e-015 -7.95139e-016
lhumerus -32.847 21.2028 73.6563
lradius 21.283
lwrist -10.875
lhand -26.6875 21.3401
lfingers 7.12502
lthumb -0.118272 51.3198
rfemur -8.52905 15.3671 19.3333
rtibia 20.8004
rfoot -21.8887 -25.0735
rtoes 14.0978
lfemur -58.1203 12.5284 -24.3222
ltibia 73.8912
lfoot -17.3072 3.9847
ltoes -9.91563
327
root -1.89058 18.9553 9.99848 179.737 25.4616 173.59
lowerback 11.961 2.54049 0.802473
upperback 2.61729 3.6098 -1.91767
thorax -3.77835 1.87188 -2.99573
lowerneck -6.48393 0.181795 -6.00267
upperneck 28.6147 3.02367 2.35602
head 10.0481 1.84831 2.32781
rclavicle 8.94531e-014 1.27222e-014
rhumerus -30.8732 2.01966 -79.5099
rradius 32.6872
rwrist 10.2297
rhand -24.6471 -2.22732
rfingers 7.12502
rthumb 1.85239 -32.199
lclavicle 8.94531e-014 1.27222e-014
lhumerus -32.8517 21.113 73.7373
lradius 21.3768
lwrist -10.8942
lhand -26.6175 21.3134
lfingers 7.12502
lthumb -0.0506478 51.2932
rfemur -8.31613 15.3024 19.225
rtibia 20.6111
rfoot -22.3386 -25.2688
rtoes 13.4221
lfemur -58.0767 12.2244 -24.4164
ltibia 73.9081
lfoot -17.1989 3.90476
ltoes -9.77785
328
root -1.88567 18.9545 9.97641 179.82 25.3269 173.636
lowerback 11.9994 2.56409 0.865757
upperback 2.63516 3.65084 -1.94063
thorax -3.77301 1.89301 -3.06283
lowerneck -6.54011 0.152784 -5.93759
upperneck 28.6151 2.9703 2.36582
head 10.0617 1.83052 2.31586
rclavicle 6.37105e-014 -2.78299e-015
rhumerus -30.8791 1.92377 -79.4944
rradius 32.9388
rwrist 10.5625
rhand -24.2002 -1.73512
rfingers 7.12502
rthumb 2.28406 -31.7026
lclavicle 6.37105e-014 -2.78299e-015
lhumerus -32.7655 20.933 73.8503
lradius 21.4598
lwrist -10.8227
lhand -26.5821 21.6033
lfingers 7.12502
lthumb -0.0164889 51.5831
rfemur -8.20528 15.3169 19.2656
rtibia 20.4474
rfoot -22.5517 -25.5149
rtoes 12.9549
lfemur -58.1554 12.0231 -24.371
ltibia 73.9598
lfoot -16.9644 3.87733
ltoes -8.5618
329
root -1.88118 18.9528 9.95443 180.027 25.1495 173.811
lowerback 11.9812 2.55822 1.0265
upperback 2.6405 3.66304 -1.92683
thorax -3.74772 1.89789 -3.13901
lowerneck -6.70149 0.134101 -5.81053
upperneck 28.6785 2.942 2.33117
head 10.1193 1.82423 2.28389
rclavicle 4.47266e-014 -2.0276e-014
rhumerus -30.7039 1.8725 -79.5134
rradius 32.8985
rwrist 10.7513
rhand -24.2927 -0.672027
rfingers 7.12502
rthumb 2.19463 -30.6405
lclavicle 4.47266e-014 -2.0276e-014
lhumerus -32.6413 20.8336 73.9466
lradius 21.4709
lwrist -10.7946
lhand -26.6676 21.757
lfingers 7.12502
lthumb -0.0990678 51.7367
rfemur -8.18481 15.3517 19.4187
rtibia 20.3321
rfoot -22.6395 -25.7446
rtoes 13.198
lfemur -58.354 11.8088 -24.2243
ltibia 74.0495
lfoot -16.8922 3.91519
ltoes -7.96679
330
root -1.87724 18.9565 9.92701 180.073 24.9995 173.705
lowerback 11.9891 2.54829 0.917255
upperback 2.62686 3.63571 -1.94846
thorax -3.77319 1.8849 -3.09743
lowerneck -6.66598 0.193711 -5.7801
upperneck 28.6311 3.01558 2.33925
head 10.0914 1.86287 2.28661
rclavicle 2.04748e-014 -5.1684e-015
rhumerus -30.6127 1.94349 -79.5412
rradius 32.9243
rwrist 10.9236
rhand -24.8234 0.591119
rfingers 7.12502
rthumb 1.68216 -29.382
lclavicle 2.04748e-014 -5.1684e-015
lhumerus -32.7023 20.67 74.0638
lradius 21.6204
lwrist -10.698
lhand -26.5767 21.9972
lfingers 7.12502
lthumb -0.0112499 51.9769
rfemur -8.13447 15.3042 19.2836
rtibia 20.2788
rfoot -22.795 -25.8264
rtoes 13.6079
lfemur -58.3951 11.5749 -24.3476
ltibia 74.1141
lfoot -16.8712 3.91145
ltoes -7.28258
331
root -1.87412 18.9569 9.90205 180.095 24.7992 173.62
lowerback 12.0723 2.51903 0.850863
upperback 2.61245 3.58885 -1.97512
thorax -3.83891 1.86174 -3.08699
lowerneck -6.58522 0.226473 -5.85555
upperneck 28.5358 3.02851 2.45746
head 10.036 1.8738 2.3377
rclavicle -1.90833e-014 -1.39149e-014
rhumerus -30.6619 2.25608 -79.6602
rradius 33.2128
rwrist 10.8384
rhand -25.2616 1.32433
rfingers 7.12502
rthumb 1.2589 -28.6517
lclavicle -1.90833e-014 -1.39149e-014
lhumerus -32.7547 20.5304 74.1779
lradius 21.7976
lwrist -10.6558
lhand -26.4283 22.2543
lfingers 7.12502
lthumb 0.132052 52.234
rfemur -8.06654 15.1921 19.189
rtibia 20.2572
rfoot -22.9119 -25.9296
rtoes 13.3817
lfemur -58.4527 11.3509 -24.4735
ltibia 74.2432
lfoot -16.7985 3.96982
ltoes -7.43297
332
root -1.87105 18.9536 9.8783 180.207 24.6646 173.67
lowerback 12.0858 2.52501 0.915113
upperback 2.63875 3.60712 -1.9996
thorax -3.81223 1.87213 -3.15114
lowerneck -6.69007 0.191841 -5.77036
upperneck 28.5421 2.9704 2.4346
head 10.0623 1.85019 2.31114
rclavicle -5.01931e-014 -1.15295e-014
rhumerus -30.7152 2.49443 -79.8127
rradius 33.5681
rwrist 10.6018
rhand -25.5276 1.18947
rfingers 7.12502
rthumb 1.00199 -28.7879
lclavicle -5.01931e-014 -1.15295e-014
lhumerus -32.617 20.3272 74.3244
lradius 21.9117
lwrist -10.522
lhand -26.4549 22.3046
lfingers 7.12502
lthumb 0.106395 52.2843
rfemur -8.06264 15.1386 19.2181
rtibia 20.2577
rfoot -23.0951 -25.9418
rtoes 13.2204
lfemur -58.6321 11.2203 -24.4814
ltibia 74.4508
lfoot -16.6932 4.05976
ltoes -8.049
333
root -1.86738 18.9524 9.85335 180.311 24.557 173.739
lowerback 12.0949 2.51779 0.958857
upperback 2.66018 3.60524 -1.98962
thorax -3.79292 1.872 -3.16472
lowerneck -6.75506 0.197199 -5.80352
upperneck 28.5669 2.97044 2.50094
head 10.0819 1.85288 2.34223
rclavicle -1.16289e-014 4.37326e-015
rhumerus -30.6604 2.75519 -79.9062
rradius 33.6861
rwrist 10.3039
rhand -25.432 1.15474
rfingers 7.12502
rthumb 1.09429 -28.8222
lclavicle -1.16289e-014 4.37326e-015
lhumerus -32.5292 19.9599 74.5239
lradius 22.0536
lwrist -10.1317
lhand -26.5886 21.9379
lfingers 7.12502
lthumb -0.0227447 51.9176
rfemur -8.03549 15.12 19.2699
rtibia 20.2544
rfoot -23.2167 -25.9833
rtoes 12.957
lfemur -58.7869 11.0694 -24.4179
ltibia 74.6781
lfoot -16.7777 4.06113
ltoes -7.89884
334
root -1.86533 18.9506 9.82682 180.424 24.3875 173.821
lowerback 12.1619 2.47611 1.04436
upperback 2.63385 3.55958 -1.96012
thorax -3.85668 1.84647 -3.18038
lowerneck -6.69338 0.245091 -5.93855
upperneck 28.5322 3.0268 2.62434
head 10.0502 1.88 2.41237
rclavicle -2.98177e-015 -1.70955e-014
rhumerus -30.639 3.01165 -79.9781
rradius 33.8306
rwrist 10.1221
rhand -24.984 1.41272
rfingers 7.12502
rthumb 1.52704 -28.5616
lclavicle -2.98177e-015 -1.70955e-014
lhumerus -32.6186 19.6897 74.6672
lradius 22.2851
lwrist -9.82058
lhand -26.644 21.728
lfingers 7.12502
lthumb -0.076208 51.7077
rfemur -7.98091 15.1119 19.336
rtibia 20.2115
rfoot -23.3285 -26.167
rtoes 12.8404
lfemur -58.9291 10.9006 -24.3564
ltibia 74.9055
lfoot -16.967 3.94819
ltoes -7.32886
335
root -1.86125 18.9523 9.79709 180.507 24.2708 173.841
lowerback 12.1944 2.45184 1.0043
upperback 2.63015 3.52357 -1.90931
thorax -3.88619 1.82814 -3.10156
lowerneck -6.79206 0.294376 -5.96255
upperneck 28.567 3.1289 2.55263
head 10.0792 1.91541 2.40432
rclavicle 8.47817e-014 7.95139e-016
rhumerus -30.5605 3.23723 -79.9647
rradius 34.0058
rwrist 10.1486
rhand -24.769 1.73576
rfingers 7.12502
rthumb 1.73469 -28.2369
lclavicle 8.47817e-014 7.95139e-016
lhumerus -32.7291 19.5124 74.8542
lradius 22.5946
lwrist -9.64572
lhand -26.5244 22.0386
lfingers 7.12502
lthumb 0.0392828 52.0184
rfemur -7.92096 15.0566 19.3393
rtibia 20.1531
rfoot -23.4109 -26.2594
rtoes 12.827
lfemur -59.0266 10.8507 -24.3982
ltibia 75.0857
lfoot -17.0795 3.68014
ltoes -6.48652
336
root -1.85795 18.9566 9.76234 180.528 24.1464 173.815
lowerback 12.1997 2.45355 1.00932
upperback 2.67481 3.53064 -1.92581
thorax -3.8406 1.8346 -3.1213
lowerneck -6.87019 0.28477 -5.83654
upperneck 28.553 3.12922 2.41503
head 10.094 1.91114 2.33495
rclavicle 4.37326e-014 -1.19271e-015
rhumerus -30.3959 3.22279 -79.9574
rradius 34.0008
rwrist 10.2057
rhand -24.7861 1.45878
rfingers 7.12502
rthumb 1.71817 -28.514
lclavicle 4.37326e-014 -1.19271e-015
lhumerus -32.719 19.2768 75.0058
lradius 22.8378
lwrist -9.59883
lhand -26.5059 22.1241
lfingers 7.12502
lthumb 0.0571304 52.1039
rfemur -7.79604 15.0656 19.2924
rtibia 20.106
rfoot -23.7132 -26.2673
rtoes 13.2044
lfemur -59.0373 10.7669 -24.4825
ltibia 75.2142
lfoot -17.0591 3.29242
ltoes -5.14583
337
root -1.85615 18.9571 9.7265 180.477 23.9551 173.681
lowerback 12.2287 2.43908 0.943911
upperback 2.75032 3.51044 -2.00763
thorax -3.7773 1.83099 -3.16612
lowerneck -6.93363 0.264552 -5.62407
upperneck 28.457 3.08422 2.26535
head 10.0783 1.89045 2.2384
rclavicle -5.83433e-014 1.43125e-014
rhumerus -30.2589 3.217 -80.0391
rradius 34.1149
rwrist 10.2396
rhand -24.8733 0.775588
rfingers 7.12502
rthumb 1.63398 -29.1979
lclavicle -5.83433e-014 1.43125e-014
lhumerus -32.5961 18.9434 75.1397
lradius 23.0415
lwrist -9.4083
lhand -26.5097 22.0978
lfingers 7.12502
lthumb 0.0534252 52.0775
rfemur -7.63159 14.9633 19.1426
rtibia 20.101
rfoot -23.8361 -26.1146
rtoes 14.0237
lfemur -59.0007 10.604 -24.6716
ltibia 75.2806
lfoot -17.5466 3.21146
ltoes -6.40637
338
root -1.85368 18.9512 9.69637 180.578 23.7704 173.731
lowerback 12.2904 2.41149 0.9569
upperback 2.73866 3.47584 -1.99443
thorax -3.82541 1.81284 -3.15871
lowerneck -6.94447 0.266818 -5.58727
upperneck 28.3969 3.07863 2.23474
head 10.0594 1.88612 2.21865
rclavicle 5.82439e-014 8.74653e-015
rhumerus -30.1854 3.22361 -80.0665
rradius 34.2004
rwrist 10.3484
rhand -24.9081 0.910886
rfingers 7.12502
rthumb 1.60034 -29.0629
lclavicle 5.82439e-014 8.74653e-015
lhumerus -32.5988 18.7055 75.2771
lradius 23.2656
lwrist -9.12031
lhand -26.4852 22.1419
lfingers 7.12502
lthumb 0.0771445 52.1217
rfemur -7.60868 14.9104 19.171
rtibia 20.1639
rfoot -23.8036 -25.9167
rtoes 15.3434
lfemur -59.0956 10.443 -24.6551
ltibia 75.3209
lfoot -17.9527 2.93067
ltoes -6.49675
